<svg width="23" height="23" viewBox="0 0 23 23" fill="none" xmlns="http://www.w3.org/2000/svg">
<g filter="url(#filter0_g_653_209)">
<path d="M16.6202 10.088L19.001 7.8472L19.0237 7.82445C19.6065 7.23212 19.9316 6.43351 19.9282 5.60258C19.9248 4.77164 19.5932 3.9757 19.0057 3.38814C18.4181 2.80057 17.6222 2.46899 16.7912 2.4656C15.9603 2.46222 15.1617 2.78731 14.5694 3.37007C14.5615 3.37707 14.5545 3.38495 14.5466 3.39282L12.3059 5.77357L5.25462 3.21083C5.06693 3.14264 4.86368 3.12938 4.66873 3.17262C4.47377 3.21586 4.29519 3.31379 4.15393 3.45494L2.05405 5.55483C1.94368 5.66463 1.85912 5.7976 1.80648 5.94411C1.75383 6.09062 1.73443 6.247 1.74967 6.40193C1.76492 6.55687 1.81442 6.70647 1.8946 6.83991C1.97479 6.97336 2.08364 7.0873 2.21329 7.17349L7.44812 10.6628L6.55829 11.5482H4.89589C4.61764 11.5483 4.35078 11.6587 4.15393 11.8554L2.05405 13.9552C1.93126 14.0779 1.84081 14.2291 1.79079 14.3954C1.74077 14.5616 1.73273 14.7376 1.76741 14.9077C1.80208 15.0778 1.87838 15.2366 1.98948 15.37C2.10058 15.5033 2.24301 15.6071 2.40403 15.6719L5.48648 16.9056L6.71666 19.9802L6.72454 19.9994C6.79138 20.1608 6.89742 20.3029 7.03305 20.4129C7.16869 20.523 7.32963 20.5974 7.5013 20.6296C7.67297 20.6617 7.84995 20.6505 8.01621 20.597C8.18246 20.5435 8.33274 20.4494 8.45344 20.3231L10.5367 18.2399C10.6344 18.1425 10.7119 18.0269 10.7649 17.8996C10.8179 17.7723 10.8453 17.6358 10.8456 17.4979V15.8355L11.7319 14.9492L15.2203 20.1796C15.3065 20.3089 15.4202 20.4174 15.5534 20.4974C15.6866 20.5774 15.8359 20.6268 15.9904 20.6421C16.145 20.6574 16.3011 20.6383 16.4474 20.586C16.5936 20.5337 16.7265 20.4496 16.8363 20.3398L18.9362 18.2399C19.0775 18.0985 19.1756 17.9198 19.2188 17.7247C19.2621 17.5295 19.2487 17.3261 19.1803 17.1383L16.6202 10.088ZM16.2606 17.9494L12.7704 12.7146C12.6843 12.5854 12.5705 12.477 12.4373 12.3971C12.3042 12.3172 12.155 12.2679 12.0005 12.2526C11.9656 12.2493 11.9305 12.2479 11.8955 12.2482C11.7575 12.2482 11.6209 12.2754 11.4934 12.3283C11.366 12.3811 11.2502 12.4586 11.1527 12.5562L9.05278 14.6561C8.85614 14.8529 8.74569 15.1198 8.74567 15.398V17.0604L8.07896 17.7272L7.2705 15.706C7.2177 15.5739 7.13858 15.4538 7.03796 15.3532C6.93733 15.2526 6.8173 15.1735 6.68516 15.1207L4.66402 14.3122L5.33336 13.6481H6.99577C7.27401 13.6481 7.54087 13.5377 7.73773 13.341L9.83761 11.2411C9.94782 11.1313 10.0322 10.9984 10.0848 10.852C10.1373 10.7056 10.1567 10.5493 10.1415 10.3945C10.1262 10.2397 10.0768 10.0902 9.99668 9.95682C9.91659 9.82346 9.80787 9.70956 9.67837 9.62335L4.44441 6.13405L5.16537 5.41221L12.2376 7.98369C12.4305 8.05387 12.6396 8.066 12.8393 8.01857C13.039 7.97114 13.2204 7.86624 13.361 7.71683L16.0638 4.84524C16.261 4.648 16.5285 4.53719 16.8075 4.53719C17.0864 4.53719 17.3539 4.648 17.5512 4.84524C17.7484 5.04249 17.8592 5.31001 17.8592 5.58895C17.8592 5.8679 17.7484 6.13542 17.5512 6.33266L14.6796 9.03538C14.53 9.17597 14.425 9.35732 14.3774 9.55699C14.3298 9.75665 14.3418 9.96589 14.4119 10.1588L16.9842 17.2302L16.2606 17.9494Z" fill="#CE5501"/>
</g>
<defs>
<filter id="filter0_g_653_209" x="-1.39992" y="-1.39992" width="25.1985" height="25.1985" filterUnits="userSpaceOnUse" color-interpolation-filters="sRGB">
<feFlood flood-opacity="0" result="BackgroundImageFix"/>
<feBlend mode="normal" in="SourceGraphic" in2="BackgroundImageFix" result="shape"/>
<feTurbulence type="fractalNoise" baseFrequency="0.079369477927684784 0.079369477927684784" numOctaves="3" seed="3734" />
<feDisplacementMap in="shape" scale="2.7998447418212891" xChannelSelector="R" yChannelSelector="G" result="displacedImage" width="100%" height="100%" />
<feMerge result="effect1_texture_653_209">
<feMergeNode in="displacedImage"/>
</feMerge>
</filter>
</defs>
</svg>
