<svg width="19" height="19" viewBox="0 0 19 19" fill="none" xmlns="http://www.w3.org/2000/svg">
<path d="M15.2009 2.63013H3.50909C3.12148 2.63013 2.74975 2.7841 2.47567 3.05819C2.20158 3.33227 2.04761 3.704 2.04761 4.09161V8.18376C2.04761 12.151 3.97092 14.5573 5.5844 15.8777C7.31698 17.2946 9.05103 17.7777 9.12411 17.7989C9.27533 17.8398 9.43471 17.8398 9.58593 17.7989C9.65901 17.7784 11.3931 17.2946 13.1256 15.8777C14.7391 14.5573 16.6624 12.151 16.6624 8.18376V4.09161C16.6624 3.704 16.5085 3.33227 16.2344 3.05819C15.9603 2.7841 15.5886 2.63013 15.2009 2.63013ZM14.9087 8.18376C14.9087 10.7932 13.9521 12.9109 12.0653 14.4791C11.2566 15.1464 10.34 15.6711 9.35502 16.0305C8.36992 15.6713 7.45333 15.1466 6.6447 14.4791C4.75793 12.9109 3.80139 10.7932 3.80139 8.18376V4.38391H14.9087V8.18376ZM5.81166 10.5579C5.73009 10.4764 5.66538 10.3795 5.62124 10.273C5.5771 10.1664 5.55437 10.0522 5.55437 9.93681C5.55437 9.82145 5.5771 9.70723 5.62124 9.60065C5.66538 9.49408 5.73009 9.39725 5.81166 9.31568C5.89322 9.23411 5.99006 9.16941 6.09663 9.12526C6.20321 9.08112 6.31743 9.0584 6.43279 9.0584C6.54814 9.0584 6.66237 9.08112 6.76894 9.12526C6.87551 9.16941 6.97235 9.23411 7.05392 9.31568L8.18583 10.4491L11.6576 6.97658C11.8223 6.81184 12.0457 6.7193 12.2787 6.7193C12.5117 6.7193 12.7351 6.81184 12.8998 6.97658C13.0646 7.14131 13.1571 7.36474 13.1571 7.59771C13.1571 7.83067 13.0646 8.0541 12.8998 8.21884L8.80769 12.311C8.72623 12.3927 8.62943 12.4576 8.52284 12.5019C8.41625 12.5461 8.30198 12.5689 8.18656 12.5689C8.07115 12.5689 7.95688 12.5461 7.85029 12.5019C7.7437 12.4576 7.6469 12.3927 7.56543 12.311L5.81166 10.5579Z" fill="#CE5501"/>
</svg>
